<svg xmlns="http://www.w3.org/2000/svg" xmlns:xlink="http://www.w3.org/1999/xlink" width="232" zoomAndPan="magnify" viewBox="0 0 174 142.499996" height="190" preserveAspectRatio="xMidYMid meet" version="1.0"><defs><clipPath id="80866a4e8d"><path d="M 0.304688 20.359375 L 172.949219 20.359375 L 172.949219 142 L 0.304688 142 Z M 0.304688 20.359375 " clip-rule="nonzero"/></clipPath><clipPath id="aeebff45fc"><path d="M 44.960938 0 L 96.53125 0 L 96.53125 79.96875 L 44.960938 79.96875 Z M 44.960938 0 " clip-rule="nonzero"/></clipPath><clipPath id="4980e43e35"><path d="M 62 45 L 81 45 L 81 64 L 62 64 Z M 62 45 " clip-rule="nonzero"/></clipPath><clipPath id="128e831051"><path d="M 59.394531 53.277344 L 70.851562 42.550781 L 83.621094 56.195312 L 72.164062 66.917969 Z M 59.394531 53.277344 " clip-rule="nonzero"/></clipPath><clipPath id="df2b252830"><path d="M 59.394531 53.28125 L 71.101562 42.324219 L 83.851562 55.945312 L 72.144531 66.902344 Z M 59.394531 53.28125 " clip-rule="nonzero"/></clipPath><clipPath id="52101218f6"><path d="M 65.25 47.800781 L 74.289062 45.726562 L 80.664062 52.539062 L 78 61.421875 L 68.957031 63.496094 L 62.582031 56.683594 Z M 65.25 47.800781 " clip-rule="nonzero"/></clipPath><clipPath id="765aa8e929"><path d="M 73 35 L 92 35 L 92 54 L 73 54 Z M 73 35 " clip-rule="nonzero"/></clipPath><clipPath id="f4b729d4a5"><path d="M 69.949219 43.398438 L 81.40625 32.671875 L 94.175781 46.3125 L 82.71875 57.039062 Z M 69.949219 43.398438 " clip-rule="nonzero"/></clipPath><clipPath id="c1dc5c0e36"><path d="M 69.949219 43.398438 L 81.65625 32.441406 L 94.40625 46.0625 L 82.699219 57.019531 Z M 69.949219 43.398438 " clip-rule="nonzero"/></clipPath><clipPath id="1c9a1ec2cf"><path d="M 75.804688 37.921875 L 84.84375 35.847656 L 91.21875 42.660156 L 88.554688 51.542969 L 79.511719 53.617188 L 73.136719 46.804688 Z M 75.804688 37.921875 " clip-rule="nonzero"/></clipPath><clipPath id="66cd6412d5"><path d="M 59 31 L 78 31 L 78 50 L 59 50 Z M 59 31 " clip-rule="nonzero"/></clipPath><clipPath id="0bf8158f23"><path d="M 56.195312 38.855469 L 67.652344 28.128906 L 80.421875 41.769531 L 68.960938 52.496094 Z M 56.195312 38.855469 " clip-rule="nonzero"/></clipPath><clipPath id="475df8fb80"><path d="M 56.195312 38.855469 L 67.902344 27.898438 L 80.652344 41.519531 L 68.945312 52.476562 Z M 56.195312 38.855469 " clip-rule="nonzero"/></clipPath><clipPath id="544daca9bc"><path d="M 62.046875 33.378906 L 71.089844 31.304688 L 77.464844 38.113281 L 74.796875 47 L 65.757812 49.070312 L 59.382812 42.261719 Z M 62.046875 33.378906 " clip-rule="nonzero"/></clipPath></defs><g clip-path="url(#80866a4e8d)"><path fill="#000000" d="M 69.75 78.574219 C 81 78.574219 90.207031 69.328125 90.207031 58.027344 C 90.207031 48.4375 75.800781 27.378906 71.457031 21.214844 C 71.113281 20.699219 70.433594 20.359375 69.835938 20.359375 C 69.15625 20.359375 68.558594 20.699219 68.21875 21.214844 C 63.785156 27.464844 49.464844 48.523438 49.464844 58.027344 C 49.382812 69.410156 58.5 78.574219 69.75 78.574219 Z M 69.75 25.921875 C 77.675781 37.394531 86.113281 51.777344 86.113281 58.027344 C 86.113281 67.101562 78.785156 74.464844 69.75 74.464844 C 60.71875 74.464844 53.386719 67.101562 53.386719 58.027344 C 53.386719 51.863281 61.910156 37.394531 69.75 25.921875 Z M 172.109375 103.3125 C 171.683594 104.425781 170.40625 104.941406 169.296875 104.425781 C 169.210938 104.339844 158.898438 99.976562 152.082031 96.894531 C 146.796875 94.496094 141.683594 91.5 137.082031 87.902344 C 131.625 83.707031 125.40625 81.3125 119.183594 80.882812 C 115.605469 80.625 111.9375 80.882812 108.445312 81.570312 C 97.195312 83.792969 90.292969 89.1875 86.542969 93.382812 C 85.175781 94.921875 83.898438 96.550781 82.792969 98.261719 C 82.535156 98.605469 82.195312 98.949219 81.769531 99.117188 C 81.597656 99.203125 61.144531 107.421875 53.8125 111.789062 C 50.660156 113.671875 49.125 117.351562 49.894531 120.863281 L 75.546875 114.785156 C 75.632812 114.785156 75.800781 114.699219 75.886719 114.699219 L 91.058594 113.757812 C 92.25 113.671875 93.273438 114.613281 93.273438 115.726562 C 93.273438 116.839844 92.421875 117.953125 91.3125 117.953125 L 76.3125 118.894531 L 48.871094 125.402344 C 48.699219 125.402344 48.527344 125.488281 48.359375 125.488281 C 47.507812 125.488281 46.738281 124.972656 46.398438 124.203125 C 43.839844 118.210938 46.058594 111.273438 51.597656 108.109375 C 58.585938 104 75.972656 96.894531 79.550781 95.4375 C 80.660156 93.726562 81.9375 92.097656 83.300781 90.558594 C 87.5625 85.933594 95.234375 79.855469 107.59375 77.460938 C 111.429688 76.6875 115.433594 76.433594 119.4375 76.6875 C 126.597656 77.203125 133.585938 79.855469 139.636719 84.566406 C 144.070312 87.902344 148.84375 90.816406 153.871094 93.039062 C 160.691406 96.121094 170.917969 100.488281 171.003906 100.574219 C 172.109375 101.003906 172.621094 102.199219 172.109375 103.3125 Z M 138.53125 125.316406 C 138.019531 126.34375 136.742188 126.855469 135.71875 126.34375 C 129.070312 123.089844 121.398438 123.089844 114.75 126.34375 C 114.667969 126.34375 114.582031 126.429688 114.582031 126.429688 L 75.460938 140.808594 C 72.90625 141.753906 70.261719 142.179688 67.621094 142.179688 C 65.660156 142.179688 63.613281 141.921875 61.65625 141.410156 C 52.621094 139.011719 40.945312 135.589844 36.425781 133.363281 C 36.339844 133.363281 36.339844 133.277344 36.257812 133.277344 L 2.335938 112.902344 C 1.566406 112.472656 0.972656 111.703125 0.886719 110.847656 C 0.628906 109.304688 1.652344 108.109375 2.421875 107.335938 C 3.015625 106.738281 3.613281 106.222656 4.296875 105.796875 L 3.445312 105.367188 C 2.078125 104.683594 1.226562 103.484375 0.972656 102.03125 C 0.714844 100.574219 1.226562 99.03125 2.25 98.003906 C 2.421875 97.835938 2.589844 97.75 2.675781 97.578125 C 4.636719 95.78125 7.363281 94.921875 10.089844 95.09375 C 10.515625 95.09375 11.027344 95.179688 11.453125 95.179688 C 12.390625 95.265625 13.328125 95.4375 14.265625 95.78125 C 14.523438 94.921875 15.203125 93.210938 17.421875 92.097656 C 19.636719 90.984375 22.621094 91.070312 26.453125 92.183594 C 26.625 91.839844 26.796875 91.5 27.136719 91.242188 C 27.390625 91.070312 32.507812 87.21875 40.175781 88.675781 C 40.261719 88.675781 40.347656 88.761719 40.519531 88.761719 L 52.789062 93.125 L 67.28125 93.726562 C 68.472656 93.8125 69.324219 94.753906 69.324219 95.949219 C 69.238281 97.0625 68.300781 98.003906 67.195312 98.003906 C 67.195312 98.003906 67.109375 98.003906 67.109375 98.003906 L 52.277344 97.40625 C 52.109375 97.40625 51.851562 97.320312 51.683594 97.320312 L 39.152344 92.867188 C 35.402344 92.183594 32.507812 93.125 30.972656 93.894531 C 33.1875 94.839844 35.574219 96.121094 38.214844 97.664062 L 47.589844 99.976562 C 48.699219 100.230469 49.464844 101.429688 49.125 102.542969 C 48.871094 103.484375 48.019531 104.167969 47.082031 104.167969 C 46.910156 104.167969 46.738281 104.167969 46.570312 104.082031 L 36.851562 101.6875 C 36.683594 101.601562 36.425781 101.515625 36.257812 101.429688 C 24.921875 94.667969 20.660156 95.265625 19.296875 95.78125 C 18.527344 96.121094 18.359375 96.636719 18.273438 96.722656 L 16.3125 96.550781 L 16.140625 96.550781 C 18.359375 97.664062 20.746094 98.863281 23.132812 100.058594 C 26.027344 101.515625 29.011719 103.058594 31.570312 104.253906 L 41.371094 107.9375 C 42.476562 108.363281 42.988281 109.5625 42.648438 110.675781 C 42.308594 111.53125 41.539062 112.046875 40.6875 112.046875 C 40.433594 112.046875 40.175781 111.960938 39.921875 111.875 L 30.035156 108.109375 C 29.949219 108.109375 29.949219 108.023438 29.863281 108.023438 C 27.308594 106.738281 24.238281 105.195312 21.339844 103.742188 C 18.953125 102.542969 16.484375 101.257812 14.351562 100.230469 C 13.414062 99.804688 12.390625 99.460938 11.371094 99.375 C 10.945312 99.375 10.515625 99.289062 10.089844 99.289062 C 8.472656 99.203125 6.851562 99.71875 5.746094 100.746094 C 5.660156 100.832031 5.488281 100.917969 5.402344 101.085938 C 5.148438 101.171875 5.0625 101.257812 5.0625 101.429688 C 5.0625 101.601562 5.148438 101.601562 5.234375 101.601562 L 9.835938 103.828125 C 10.089844 103.828125 10.347656 103.742188 10.601562 103.742188 C 13.925781 103.570312 17.589844 105.710938 21.085938 107.851562 C 22.363281 108.621094 23.558594 109.304688 24.664062 109.90625 L 42.308594 116.582031 C 43.414062 117.011719 43.925781 118.210938 43.585938 119.324219 C 43.160156 120.433594 41.964844 120.949219 40.859375 120.605469 L 23.046875 113.929688 C 22.960938 113.929688 22.875 113.84375 22.875 113.84375 C 21.597656 113.160156 20.234375 112.386719 18.953125 111.617188 C 16.140625 109.90625 12.902344 108.023438 10.859375 108.109375 C 10.515625 108.109375 10.175781 108.191406 9.835938 108.191406 C 9.75 108.191406 9.75 108.191406 9.664062 108.191406 C 8.132812 108.449219 6.765625 109.050781 5.746094 109.992188 L 38.132812 129.425781 C 41.539062 131.050781 50.234375 133.789062 62.59375 137.128906 C 66.34375 138.15625 70.175781 137.984375 73.84375 136.617188 L 112.875 122.320312 C 120.71875 118.550781 129.667969 118.550781 137.507812 122.40625 C 138.617188 122.917969 139.042969 124.203125 138.53125 125.316406 Z M 138.53125 125.316406 " fill-opacity="1" fill-rule="nonzero"/></g><g clip-path="url(#aeebff45fc)"><path fill="#0064a6" d="M 88.96875 31.882812 L 70.605469 0 L 52.234375 31.882812 C 49.59375 36.226562 44.972656 46.777344 44.972656 52.355469 C 44.972656 67.613281 56.449219 79.980469 70.605469 79.980469 C 84.765625 79.980469 96.242188 67.613281 96.242188 52.355469 C 96.242188 46.777344 91.609375 36.226562 88.96875 31.882812 Z M 88.96875 31.882812 " fill-opacity="1" fill-rule="nonzero"/></g><g clip-path="url(#4980e43e35)"><g clip-path="url(#128e831051)"><g clip-path="url(#df2b252830)"><g clip-path="url(#52101218f6)"><path stroke-linecap="butt" transform="matrix(0.545637, -0.510738, 0.510738, 0.545637, 59.395609, 53.279382)" fill="none" stroke-linejoin="miter" d="M 10.728232 0.00130903 L 21.454545 6.2401 L 21.452816 18.723886 L 10.728347 24.965064 L -0.00178192 18.722701 L -0.0000535822 6.238916 Z M 10.728232 0.00130903 " stroke="#ffffff" stroke-width="6" stroke-opacity="1" stroke-miterlimit="4"/></g></g></g></g><g clip-path="url(#765aa8e929)"><g clip-path="url(#f4b729d4a5)"><g clip-path="url(#c1dc5c0e36)"><g clip-path="url(#1c9a1ec2cf)"><path stroke-linecap="butt" transform="matrix(0.545637, -0.510738, 0.510738, 0.545637, 69.950599, 43.399488)" fill="none" stroke-linejoin="miter" d="M 10.727034 0.0019973 L 21.453346 6.240789 L 21.451618 18.724574 L 10.727149 24.965752 L -0.00298018 18.723389 L -0.00125184 6.239604 Z M 10.727034 0.0019973 " stroke="#ffffff" stroke-width="6" stroke-opacity="1" stroke-miterlimit="4"/></g></g></g></g><g clip-path="url(#66cd6412d5)"><g clip-path="url(#0bf8158f23)"><g clip-path="url(#475df8fb80)"><g clip-path="url(#544daca9bc)"><path stroke-linecap="butt" transform="matrix(0.545637, -0.510738, 0.510738, 0.545637, 56.195195, 38.856087)" fill="none" stroke-linejoin="miter" d="M 10.724285 0.00021783 L 21.454414 6.242581 L 21.456257 18.72255 L 10.7244 24.963973 L 0.00165894 18.721366 L -0.000184447 6.241396 Z M 10.724285 0.00021783 " stroke="#ffffff" stroke-width="6" stroke-opacity="1" stroke-miterlimit="4"/></g></g></g></g><path stroke-linecap="butt" transform="matrix(0.217167, -0.715131, 0.715131, 0.217167, 69.526206, 31.761905)" fill="none" stroke-linejoin="miter" d="M 0.00171408 1.497738 L 12.106234 1.498028 " stroke="#ffffff" stroke-width="3" stroke-opacity="1" stroke-miterlimit="4"/><path stroke-linecap="butt" transform="matrix(0.217167, -0.715131, 0.715131, 0.217167, 65.587426, 70.824163)" fill="none" stroke-linejoin="miter" d="M 0.00190208 1.499471 L 12.106422 1.499761 " stroke="#ffffff" stroke-width="3" stroke-opacity="1" stroke-miterlimit="4"/><path stroke-linecap="butt" transform="matrix(0.727937, -0.169356, 0.169356, 0.727937, 54.626559, 57.472948)" fill="none" stroke-linejoin="miter" d="M -0.00266947 1.501513 L 12.108719 1.502008 " stroke="#ffffff" stroke-width="3" stroke-opacity="1" stroke-miterlimit="4"/></svg>